<svg width="199" height="179" viewBox="0 0 199 179" fill="none" xmlns="http://www.w3.org/2000/svg">
<circle cx="99.5" cy="106.5" r="23.1458" stroke="white" stroke-opacity="0.8" stroke-width="4.20833"/>
<path d="M84.7708 87.5625L86.4833 73.8626C86.7071 72.0725 88.2288 70.7292 90.0328 70.7292H108.967C110.771 70.7292 112.293 72.0725 112.517 73.8626L114.229 87.5625" stroke="white" stroke-opacity="0.8" stroke-width="4.20833" stroke-linecap="round" stroke-linejoin="round"/>
<path d="M84.7708 125.438L86.4833 139.137C86.7071 140.928 88.2288 142.271 90.0328 142.271H108.967C110.771 142.271 112.293 140.928 112.517 139.137L114.229 125.438" stroke="white" stroke-opacity="0.8" stroke-width="4.20833" stroke-linecap="round" stroke-linejoin="round"/>
<path d="M125.381 102.292H122.646V110.708H125.381C127.357 110.708 128.958 109.107 128.958 107.131V105.869C128.958 103.893 127.357 102.292 125.381 102.292Z" fill="white" fill-opacity="0.8"/>
<path d="M99.5 106.5L91.0833 95.9792" stroke="white" stroke-opacity="0.8" stroke-width="4.20833" stroke-linecap="round"/>
<path d="M99.4999 106.5L110.021 108.606" stroke="white" stroke-opacity="0.8" stroke-width="4.20833" stroke-linecap="round"/>
<path d="M78.552 12.0136C87.8001 -4.00451 110.92 -4.00454 120.168 12.0136L195.465 142.432C204.714 158.45 193.153 178.473 174.657 178.473H24.063C5.56692 178.473 -5.99319 158.45 3.25487 142.432L78.552 12.0136Z" fill="white" fill-opacity="0.1"/>
</svg>
